HIERARCHY
ROOT root
{
	OFFSET	0	13.1	24.9
	CHANNELS 6  Xposition Yposition Zposition Xrotation Yrotation Zrotation
	JOINT spine_1
	{
		OFFSET	0	9.99999	0
		CHANNELS 3  Xrotation Yrotation Zrotation
		JOINT spine_2
		{
			OFFSET	0	112	-10
			CHANNELS 3  Xrotation Yrotation Zrotation
			JOINT spine_3
			{
				OFFSET	0	206.5	19.3
				CHANNELS 3  Xrotation Yrotation Zrotation
				JOINT spine_4
				{
					OFFSET	0	110.4	14.6
					CHANNELS 3  Xrotation Yrotation Zrotation
					JOINT neck_1
					{
						OFFSET	0	71.8	-50.3
						CHANNELS 3  Xrotation Yrotation Zrotation
						JOINT neck_2
						{
							OFFSET	0	86.2	-25.8
							CHANNELS 3  Xrotation Yrotation Zrotation
							JOINT head_ee
							{
								OFFSET	0	179.8	-8.7
								CHANNELS 3  Xrotation Yrotation Zrotation
								End Site
								{
									OFFSET	1	0	0
								}
							}
						}
					}
					JOINT left_clavicle
					{
						OFFSET	-43.2	22.4	-70.8
						CHANNELS 3  Xrotation Yrotation Zrotation
						JOINT left_shoulder
						{
							OFFSET	-93.9	-5.79999	48.7
							CHANNELS 3  Xrotation Yrotation Zrotation
							JOINT left_elbow
							{
								OFFSET	-291.4	-30.8	15.2
								CHANNELS 3  Xrotation Yrotation Zrotation
								JOINT left_lowarm_twist
								{
									OFFSET	-110.7	-3.89999	13.6
									CHANNELS 3  Xrotation Yrotation Zrotation
									JOINT left_hand
									{
										OFFSET	-110.7	-3.89999	13.6
										CHANNELS 3  Xrotation Yrotation Zrotation
										JOINT left_ee
										{
											OFFSET	-80.8	-5.10001	12.1
											CHANNELS 3  Xrotation Yrotation Zrotation
											End Site
											{
												OFFSET	1	0	0
											}
										}
									}
								}
							}
						}
					}
					JOINT right_clavicle
					{
						OFFSET	43.2	22.4	-70.8
						CHANNELS 3  Xrotation Yrotation Zrotation
						JOINT right_shoulder
						{
							OFFSET	93.9	-5.79999	48.7
							CHANNELS 3  Xrotation Yrotation Zrotation
							JOINT right_elbow
							{
								OFFSET	291.4	-30.8	15.2
								CHANNELS 3  Xrotation Yrotation Zrotation
								JOINT right_lowarm_twist
								{
									OFFSET	110.7	-3.89999	13.6
									CHANNELS 3  Xrotation Yrotation Zrotation
									JOINT right_hand
									{
										OFFSET	110.7	-3.89999	13.6
										CHANNELS 3  Xrotation Yrotation Zrotation
										JOINT right_ee
										{
											OFFSET	80.8	-5.10001	12.1
											CHANNELS 3  Xrotation Yrotation Zrotation
											End Site
											{
												OFFSET	1	0	0
											}
										}
									}
								}
							}
						}
					}
				}
			}
		}
	}
	JOINT left_hip
	{
		OFFSET	-82.8	-127.5	0.300001
		CHANNELS 3  Xrotation Yrotation Zrotation
		JOINT left_knee
		{
			OFFSET	-28.2	-396.7	2.2
			CHANNELS 3  Xrotation Yrotation Zrotation
			JOINT left_ankle
			{
				OFFSET	-11.7	-411.3	35.4
				CHANNELS 3  Xrotation Yrotation Zrotation
				JOINT left_toes
				{
					OFFSET	0	-60	-88.6
					CHANNELS 3  Xrotation Yrotation Zrotation
					JOINT left_foot_ee
					{
						OFFSET	-22.5	-16.5	-42.2
						CHANNELS 3  Xrotation Yrotation Zrotation
						End Site
						{
							OFFSET	1	0	0
						}
					}
				}
			}
		}
	}
	JOINT right_hip
	{
		OFFSET	82.8	-127.5	0.300001
		CHANNELS 3  Xrotation Yrotation Zrotation
		JOINT right_knee
		{
			OFFSET	28.2	-396.7	2.2
			CHANNELS 3  Xrotation Yrotation Zrotation
			JOINT right_ankle
			{
				OFFSET	11.7	-411.3	35.4
				CHANNELS 3  Xrotation Yrotation Zrotation
				JOINT right_toes
				{
					OFFSET	0	-60	-88.6
					CHANNELS 3  Xrotation Yrotation Zrotation
					JOINT right_foot_ee
					{
						OFFSET	22.5	-16.5	-42.2
						CHANNELS 3  Xrotation Yrotation Zrotation
						End Site
						{
							OFFSET	1	0	0
						}
					}
				}
			}
		}
	}
}
MOTION
Frames: 9
Frame Time: 0.02
1041.4 574.639 -1682.42 -4.09274856757 23.4856843917 4.20615734504 2.21977 -0.0488088 1.01662 2.22033 -0.113397 1.01145 2.21824 -0.285886 0.976819 2.21693 -0.128036 1.00971 -0.563678 1.39682 -0.855023 -0.553229 3.19207 -0.75573 -0.0 0.0 -0.0 -1.62915 17.2338 -0.495281 -24.5803 -22.0798 70.664 0.822298 -22.163 0.161055 8.69582 0.224249 -1.08711 0.832947 16.0666 11.7539 -0.0 0.0 -0.0 10.7925 11.7296 -21.5563 -0.741935 22.7976 -62.1665 1.27251 32.2243 -0.367597 28.5709 -0.108308 3.61053 0.3861 10.0717 1.67296 0.0 0.0 0.0 37.0699 8.47584 -12.2027 -9.53789 0.273663 1.4365 -11.5284 20.3005 1.75789 -8.72133 0.0 0.0 -0.0 0.0 -0.0 -0.938609 23.6319 -2.82422 -25.2799 -0.19573 -3.84313 41.4877 -18.2841 5.12465 6.95296 -0.0 -0.0 0.0 0.0 0.0 
1041.4 574.639 -1682.42 -4.11114951176 24.0680696752 4.25179673132 2.21977 -0.0488088 1.01662 2.22033 -0.113397 1.01145 2.21824 -0.285886 0.976819 2.21693 -0.128036 1.00971 -0.563678 1.39682 -0.855023 -0.553229 3.19207 -0.75573 -0.0 0.0 -0.0 -1.62915 17.2338 -0.495281 -24.5803 -22.0798 70.664 0.822298 -22.163 0.161055 8.69582 0.224249 -1.08711 0.832947 16.0666 11.7539 -0.0 0.0 -0.0 10.7925 11.7296 -21.5563 -0.741935 22.7976 -62.1665 1.27251 32.2243 -0.367597 28.5709 -0.108308 3.61053 0.3861 10.0717 1.67296 0.0 0.0 0.0 37.0699 8.47584 -12.2027 -9.53789 0.273663 1.4365 -11.5284 20.3005 1.75789 -8.72133 0.0 0.0 -0.0 0.0 -0.0 -0.938609 23.6319 -2.82422 -25.2799 -0.19573 -3.84313 41.4877 -18.2841 5.12465 6.95296 -0.0 -0.0 0.0 0.0 0.0 
1041.4 574.639 -1682.42 -4.13773151146 24.8779581033 4.31596183975 2.21977 -0.0488088 1.01662 2.22033 -0.113397 1.01145 2.21824 -0.285886 0.976819 2.21693 -0.128036 1.00971 -0.563678 1.39682 -0.855023 -0.553229 3.19207 -0.75573 -0.0 0.0 -0.0 -1.62915 17.2338 -0.495281 -24.5803 -22.0798 70.664 0.822298 -22.163 0.161055 8.69582 0.224249 -1.08711 0.832947 16.0666 11.7539 -0.0 0.0 -0.0 10.7925 11.7296 -21.5563 -0.741935 22.7976 -62.1665 1.27251 32.2243 -0.367597 28.5709 -0.108308 3.61053 0.3861 10.0717 1.67296 0.0 0.0 0.0 37.0699 8.47584 -12.2027 -9.53789 0.273663 1.4365 -11.5284 20.3005 1.75789 -8.72133 0.0 0.0 -0.0 0.0 -0.0 -0.938609 23.6319 -2.82422 -25.2799 -0.19573 -3.84313 41.4877 -18.2841 5.12465 6.95296 -0.0 -0.0 0.0 0.0 0.0 
1041.4 574.639 -1682.42 -4.14946220085 25.2243954726 4.34366583285 2.21977 -0.0488088 1.01662 2.22033 -0.113397 1.01145 2.21824 -0.285886 0.976819 2.21693 -0.128036 1.00971 -0.563678 1.39682 -0.855023 -0.553229 3.19207 -0.75573 -0.0 0.0 -0.0 -1.62915 17.2338 -0.495281 -24.5803 -22.0798 70.664 0.822298 -22.163 0.161055 8.69582 0.224249 -1.08711 0.832947 16.0666 11.7539 -0.0 0.0 -0.0 10.7925 11.7296 -21.5563 -0.741935 22.7976 -62.1665 1.27251 32.2243 -0.367597 28.5709 -0.108308 3.61053 0.3861 10.0717 1.67296 0.0 0.0 0.0 37.0699 8.47584 -12.2027 -9.53789 0.273663 1.4365 -11.5284 20.3005 1.75789 -8.72133 0.0 0.0 -0.0 0.0 -0.0 -0.938609 23.6319 -2.82422 -25.2799 -0.19573 -3.84313 41.4877 -18.2841 5.12465 6.95296 -0.0 -0.0 0.0 0.0 0.0 
1041.4 574.639 -1682.42 -4.17307118034 25.902769781 4.39837703323 2.21977 -0.0488088 1.01662 2.22033 -0.113397 1.01145 2.21824 -0.285886 0.976819 2.21693 -0.128036 1.00971 -0.563678 1.39682 -0.855023 -0.553229 3.19207 -0.75573 -0.0 0.0 -0.0 -1.62915 17.2338 -0.495281 -24.5803 -22.0798 70.664 0.822298 -22.163 0.161055 8.69582 0.224249 -1.08711 0.832947 16.0666 11.7539 -0.0 0.0 -0.0 10.7925 11.7296 -21.5563 -0.741935 22.7976 -62.1665 1.27251 32.2243 -0.367597 28.5709 -0.108308 3.61053 0.3861 10.0717 1.67296 0.0 0.0 0.0 37.0699 8.47584 -12.2027 -9.53789 0.273663 1.4365 -11.5284 20.3005 1.75789 -8.72133 0.0 0.0 -0.0 0.0 -0.0 -0.938609 23.6319 -2.82422 -25.2799 -0.19573 -3.84313 41.4877 -18.2841 5.12465 6.95296 -0.0 -0.0 0.0 0.0 0.0 
1029.16030331 576.633 -1692.2209604 -3.19503066107 26.6359761527 4.20220492826 2.10278 -0.454553 0.603206 2.10285 -0.492015 0.57306 2.09785 -0.584361 0.478538 2.09788 -0.501453 0.56482 -0.0784134 2.13779 -0.267527 -0.066058 4.02973 -0.0586952 -0.0 0.0 -0.0 -1.52363 16.379 -0.464176 -24.1005 -22.267 71.371 0.845074 -22.7152 0.169749 8.29046 0.217481 -1.03577 0.990672 16.1304 12.7716 -0.0 0.0 -0.0 10.7008 13.1295 -21.3201 -2.45378 22.2509 -61.5313 1.22085 31.1633 -0.340459 27.9962 -0.123927 3.53878 0.202979 8.71005 2.32863 0.0 0.0 0.0 34.8339 9.54282 -12.1012 -9.17359 0.267627 1.38092 -8.94791 19.0878 1.35436 -6.67416 0.0 0.0 -0.0 0.0 -0.0 -1.29775 23.9639 -3.0109 -27.4537 -0.133142 -4.17084 41.132 -15.9487 5.04845 7.20918 -0.0 -0.0 0.0 0.0 0.0 
1029.01805716 576.633 -1692.04062844 -3.21901101683 27.4739297336 4.25492557033 2.10278 -0.454553 0.603206 2.10285 -0.492015 0.57306 2.09785 -0.584361 0.478538 2.09788 -0.501453 0.56482 -0.0784134 2.13779 -0.267527 -0.066058 4.02973 -0.0586952 -0.0 0.0 -0.0 -1.52363 16.379 -0.464176 -24.1005 -22.267 71.371 0.845074 -22.7152 0.169749 8.29046 0.217481 -1.03577 0.990672 16.1304 12.7716 -0.0 0.0 -0.0 10.7008 13.1295 -21.3201 -2.45378 22.2509 -61.5313 1.22085 31.1633 -0.340459 27.9962 -0.123927 3.53878 0.202979 8.71005 2.32863 0.0 0.0 0.0 34.8339 9.54282 -12.1012 -9.17359 0.267627 1.38092 -8.94791 19.0878 1.35436 -6.67416 0.0 0.0 -0.0 0.0 -0.0 -1.29775 23.9639 -3.0109 -27.4537 -0.133142 -4.17084 41.132 -15.9487 5.04845 7.20918 -0.0 -0.0 0.0 0.0 0.0 
1006.15511141 580.81 -1706.50726486 -3.02044187159 27.5822515782 4.71762375188 1.94799 -0.27434 0.399513 1.94803 -0.299206 0.381247 1.94601 -0.36192 0.322315 1.946 -0.306475 0.375428 -0.20538 2.37465 0.823177 -0.196684 3.56558 1.14114 -0.0 0.0 -0.0 -1.64072 15.575 -0.774558 -20.8075 -22.709 71.8919 0.866126 -23.2217 0.177964 8.84537 0.226654 -1.10606 0.875379 16.2671 12.0922 -0.0 0.0 -0.0 10.4847 12.2854 -20.8606 -4.5617 21.5093 -61.5734 1.18253 30.3602 -0.320855 27.2723 -0.142575 3.44818 0.134403 7.43856 2.24992 0.0 0.0 0.0 33.6184 10.0549 -12.3338 -10.0987 0.282264 1.52213 -8.78415 19.6601 1.33178 -6.11541 0.0 0.0 -0.0 0.0 -0.0 -0.959318 24.1887 -3.24926 -28.783 -0.0887528 -4.37002 40.6828 -14.9979 4.99341 7.61541 -0.0 -0.0 0.0 0.0 0.0 
986.948396595 586.523 -1716.92434301 -3.09615437707 27.7132131808 5.43470400895 1.971 -0.00217035 0.133241 1.97101 -0.0106444 0.132833 1.97098 -0.0339129 0.128872 1.97096 -0.0131344 0.13261 -0.267031 2.63353 1.65974 -0.255453 3.34812 2.06739 -0.0 0.0 -0.0 -1.77812 15.7158 -0.970555 -18.4025 -22.8684 72.4187 0.862853 -23.1432 0.176676 8.49476 0.220938 -1.06164 0.576593 15.9242 10.0927 -0.0 0.0 -0.0 10.3447 11.7658 -20.5619 -6.21156 21.1038 -61.5518 0.959463 25.4208 -0.216412 25.2363 -0.188862 3.19224 0.111748 4.18742 1.02059 0.0 0.0 0.0 32.5179 10.565 -12.598 -9.70926 0.276381 1.46266 -11.8903 25.1775 1.85285 -5.99142 0.0 0.0 -0.0 0.0 -0.0 -1.33498 24.272 -3.25045 -27.7229 -0.124525 -4.21127 38.3847 -14.7403 4.78129 7.56236 -0.0 -0.0 0.0 0.0 0.0 
